# xmcd
#
# Track frame offsets:
#	150
#	14374
#	25082
#	43071
#	63940
#	79721
#	92714
#	112671
#	127770
#	142596
#	156561
#	169476
#
# Disc length: 2484 seconds
#
# Revision: 0
# Processed by: cddbd v1.5.1PL0 Copyright (c) Steve Scherf et al.
# Submitted via: dBpowerAMP V4.0
#
DISCID=8c09b20c
DTITLE=Waymond Harding - King of Soul
DYEAR=1900
DGENRE=Soul
TTITLE0=Soulman
TTITLE1=Reet Pettit
TTITLE2=Unchained Melody
TTITLE3=You can leave your Head on
TTITLE4=I Heard It Through The Grapevine
TTITLE5=Chain Gain
TTITLE6=When a Man Loves a Woman
TTITLE7=My Girl
TTITLE8=Land Of Thousand Dances
TTITLE9=Midnight Hour
TTITLE10=Under The Board Walk
TTITLE11=Peter Gunn
EXTD=
EXTT0=
EXTT1=
EXTT2=
EXTT3=
EXTT4=
EXTT5=
EXTT6=
EXTT7=
EXTT8=
EXTT9=
EXTT10=
EXTT11=
PLAYORDER=
